# xmcd CD database file
#
# Track frame offsets:
#	150
#	11733
#	25243
#	41215
#	59304
#	68462
#	87878
#	107323
#	134779
#	155344
#
# Disc length: 2333 seconds
#
# Revision: 0
# Processed by: cddbd v1.5.2PL0 Copyright (c) Steve Scherf et al.
# Submitted via: CDex 1.70beta2
#
DISCID=7c091b0a
DTITLE=Herbie Mann - The Herbie Mann String Albumo
DYEAR=1967
DGENRE=Jazz
TTITLE0=To Sir With Love
TTITLE1=Hold Back (Just A Little)
TTITLE2=Sports Car
TTITLE3=I Get Along Without You Very Well
TTITLE4=	There Is A Mountain
TTITLE5=Flight Of The Bluebird
TTITLE6=Yesterday's Kisses
TTITLE7=Please Send Me Someone To Love
TTITLE8=It Was A Very Good Year
TTITLE9=Gloomy Sunday
EXTD=YEAR: 1967
EXTT0=
EXTT1=
EXTT2=
EXTT3=
EXTT4=
EXTT5=
EXTT6=
EXTT7=
EXTT8=
EXTT9=
PLAYORDER=
